<svg width="32" height="32" viewBox="0 0 32 32" fill="none" xmlns="http://www.w3.org/2000/svg">
<g clip-path="url(#clip0)">
<path d="M26.1103 12.4003C26.677 11.3803 17.5361 12.2488 17.4436 11.9504C17.3236 11.5401 5.50198 12.217 5.23298 12.4003C4.96405 12.5835 0.979517 11.54 1.09965 11.9504C0.612323 11.9504 3.13298 21.6333 3.13298 21.6333C3.22792 21.9409 6.34363 27.6674 6.74184 27.6674C6.87864 28.0655 20.7828 27.4224 21.0436 27.2136C21.2962 27.0113 26.2314 12.7945 26.1103 12.4003Z" fill="#FA4F3E"/>
<path d="M23.6165 22.9365H24C28.4162 22.9315 31.995 19.3527 32 14.9365C31.9973 12.8758 30.3274 11.2058 28.2667 11.2032H26.5947C26.64 10.4949 26.6667 9.78343 26.6667 9.06983C26.6667 8.7753 26.4279 8.5365 26.1333 8.5365H0.53334C0.238806 8.5365 6.50458e-06 8.7753 6.50458e-06 9.06983C-0.0039935 15.4393 1.83694 21.6736 5.30027 27.0192L5.41974 27.2032H0.53334C0.238806 27.2032 6.50458e-06 27.442 6.50458e-06 27.7365C0.00173984 29.2085 1.19467 30.4014 2.66667 30.4032H24C25.472 30.4014 26.6649 29.2085 26.6667 27.7365C26.6667 27.442 26.4279 27.2032 26.1333 27.2032H21.2469L21.3664 27.0192C22.2113 25.7128 22.9632 24.3485 23.6165 22.9365ZM26.5077 12.2698H28.2667C29.7387 12.2716 30.9316 13.4645 30.9333 14.9365C30.9281 18.7282 27.8804 21.8137 24.0891 21.8656C24.2405 21.505 24.3856 21.142 24.5243 20.7765C27.5466 20.5028 29.8625 17.9712 29.8667 14.9365C29.8667 14.0528 29.1503 13.3365 28.2667 13.3365H26.3861C26.4327 12.981 26.4733 12.6254 26.5077 12.2698ZM26.2299 14.4032H28.2667C28.5612 14.4032 28.8 14.642 28.8 14.9365C28.7969 17.2273 27.1775 19.1976 24.9307 19.6442C25.5065 17.9357 25.941 16.1828 26.2299 14.4032ZM25.5088 28.2698C25.2819 28.9086 24.6779 29.3357 24 29.3365H2.66667C1.98881 29.3357 1.38474 28.9086 1.15787 28.2698H25.5088ZM20.4704 26.44L19.9765 27.2032H6.69014L6.19627 26.44C2.94294 21.4193 1.16687 15.585 1.07094 9.60317H25.5957C25.4998 15.585 23.7237 21.4193 20.4704 26.44Z" fill="#FA4F3E"/>
<path d="M13.9518 4.62317C13.8536 4.5249 13.746 4.43664 13.6304 4.3595C13.1508 4.0403 13.0207 3.39277 13.3399 2.9131C13.378 2.85577 13.4218 2.80237 13.4704 2.75364L13.7104 2.51364C13.9223 2.30904 13.9282 1.97137 13.7236 1.7595C13.519 1.54764 13.1813 1.54177 12.9694 1.74637C12.965 1.75064 12.9606 1.75504 12.9563 1.7595L12.7163 1.9995C11.892 2.8231 11.8914 4.15897 12.715 4.9833C12.8131 5.08157 12.9208 5.16984 13.0363 5.24697C13.516 5.56617 13.646 6.2137 13.3268 6.69337C13.2887 6.7507 13.245 6.8041 13.1963 6.85284L12.9563 7.09284C12.7444 7.29744 12.7386 7.6351 12.9432 7.84697C13.1478 8.05884 13.4854 8.0647 13.6973 7.8601C13.7018 7.85584 13.7061 7.85144 13.7104 7.84697L13.9504 7.60697C14.7748 6.78337 14.7754 5.4475 13.9518 4.62317Z" fill="#FA4F3E"/>
<path d="M17.1519 4.62316C17.0538 4.52489 16.9461 4.43662 16.8306 4.35949C16.3509 4.04029 16.2209 3.39276 16.5401 2.91309C16.5782 2.85576 16.6219 2.80236 16.6706 2.75363L16.9106 2.51363C17.1225 2.30896 17.1283 1.97136 16.9237 1.75949C16.719 1.54763 16.3814 1.54176 16.1695 1.74643C16.1651 1.75069 16.1607 1.75509 16.1565 1.75949L15.9165 1.99949C15.0921 2.82309 15.0916 4.15896 15.9151 4.98329C16.0133 5.08156 16.1209 5.16982 16.2365 5.24696C16.7161 5.56616 16.8462 6.21369 16.527 6.69335C16.4889 6.75069 16.4451 6.80409 16.3965 6.85282L16.1565 7.09282C15.9446 7.29749 15.9387 7.63509 16.1434 7.84695C16.3481 8.05882 16.6857 8.06469 16.8975 7.86002C16.902 7.85575 16.9063 7.85135 16.9106 7.84695L17.1506 7.60695C17.9749 6.78335 17.9755 5.44749 17.1519 4.62316Z" fill="#FA4F3E"/>
<path d="M10.7516 4.62317C10.6534 4.5249 10.5458 4.43664 10.4302 4.3595C9.95057 4.0403 9.8205 3.39277 10.1397 2.9131C10.1778 2.85577 10.2216 2.80237 10.2702 2.75364L10.5102 2.51364C10.7221 2.30904 10.728 1.97137 10.5234 1.7595C10.3188 1.54764 9.9811 1.54177 9.76923 1.74637C9.76477 1.75064 9.76043 1.75504 9.7561 1.7595L9.5161 1.9995C8.69177 2.8231 8.69117 4.15897 9.51477 4.9833C9.6129 5.08157 9.72057 5.16984 9.8361 5.24697C10.3158 5.56617 10.4458 6.2137 10.1266 6.69337C10.0885 6.7507 10.0448 6.8041 9.9961 6.85284L9.7561 7.09284C9.54423 7.29744 9.53837 7.6351 9.74297 7.84697C9.94757 8.05884 10.2852 8.0647 10.4971 7.8601C10.5016 7.85584 10.5059 7.85144 10.5102 7.84697L10.7502 7.60697C11.5746 6.78337 11.5752 5.4475 10.7516 4.62317Z" fill="#FA4F3E"/>
<path d="M23.3116 11.4828L23.3117 11.4817C16.2833 11.5836 9.06422 11.5526 1.71909 11.3889C0.398308 11.3515 0.0821715 11.5724 0.315552 11.8787C0.548623 12.1852 1.24301 12.4612 2.56348 12.4984C2.60427 12.4995 2.64478 12.5005 2.68499 12.5012C10.2755 12.6711 17.736 12.7038 24.9995 12.5989C25.9386 12.5853 25.7071 12.2162 25.7229 11.9968C25.7448 11.7031 26.6687 11.5869 25.3279 11.4921C25.0265 11.4709 23.5943 11.4786 23.3116 11.4828Z" fill="#FA4F3E"/>
</g>
<defs>
<clipPath id="clip0">
<rect width="32" height="32" fill="white"/>
</clipPath>
</defs>
</svg>
